<?xml version="1.0" encoding="UTF-8" standalone="no"?>
<!-- Created with Inkscape (http://www.inkscape.org/) -->

<svg
   width="67.976257mm"
   height="36.981659mm"
   viewBox="0 0 67.976257 36.981659"
   version="1.1"
   id="svg1"
   xml:space="preserve"
   xmlns="http://www.w3.org/2000/svg"
   xmlns:svg="http://www.w3.org/2000/svg"><defs
     id="defs1"><clipPath
       clipPathUnits="userSpaceOnUse"
       id="clipPath20"><rect
         style="fill:#5d6376;fill-opacity:0.678019;stroke:none;stroke-width:0.615318;stroke-dasharray:none;stroke-opacity:1"
         id="rect20"
         width="32.442291"
         height="11.918205"
         x="118.89355"
         y="-155.89394"
         transform="scale(1,-1)" /></clipPath><clipPath
       clipPathUnits="userSpaceOnUse"
       id="clipPath23"><rect
         style="fill:#5d6376;fill-opacity:0.678019;stroke:none;stroke-width:0.529167;stroke-dasharray:none;stroke-opacity:1"
         id="rect24"
         width="21.33868"
         height="10.431282"
         x="129.89326"
         y="145.95139" /></clipPath><clipPath
       clipPathUnits="userSpaceOnUse"
       id="clipPath26"><rect
         style="fill:#5d6376;fill-opacity:0.678019;stroke:none;stroke-width:0.802521;stroke-dasharray:none;stroke-opacity:1"
         id="rect27"
         width="47.135548"
         height="20.905849"
         x="77.693573"
         y="-156.12296"
         transform="scale(1,-1)" /></clipPath><clipPath
       clipPathUnits="userSpaceOnUse"
       id="clipPath40"><rect
         style="display:none;fill:#334da0;fill-opacity:0.649462;stroke:none;stroke-width:0.529167;stroke-dasharray:none;stroke-opacity:1"
         id="rect40"
         width="28.437147"
         height="11.340233"
         x="72.413002"
         y="132.31714"
         d="m 72.413002,132.31714 h 28.437148 v 11.34023 H 72.413002 Z" /><path
         id="lpe_path-effect40"
         style="fill:#334da0;fill-opacity:0.649462;stroke:none;stroke-width:0.529167;stroke-dasharray:none;stroke-opacity:1"
         class="powerclip"
         d="m 70.735269,124.18368 h 32.959361 v 13.83139 H 70.735269 Z m 1.677733,8.13346 v 11.34023 h 28.437148 v -11.34023 z" /></clipPath><clipPath
       clipPathUnits="userSpaceOnUse"
       id="clipPath42"><rect
         style="display:none;fill:#334da0;fill-opacity:0.649462;stroke:none;stroke-width:0.659609;stroke-dasharray:none;stroke-opacity:1"
         id="rect42"
         width="58.778763"
         height="16.014832"
         x="54.839981"
         y="131.88431"
         d="m 54.839981,131.88431 h 58.778759 v 16.01483 H 54.839981 Z" /><path
         id="lpe_path-effect42"
         style="fill:#334da0;fill-opacity:0.649462;stroke:none;stroke-width:0.659609;stroke-dasharray:none;stroke-opacity:1"
         class="powerclip"
         d="m 56.450196,121.60685 h 55.037954 v 16.93641 H 56.450196 Z m -1.610215,10.27746 v 16.01483 h 58.778759 v -16.01483 z" /></clipPath><clipPath
       clipPathUnits="userSpaceOnUse"
       id="clipath_lpe_path-effect46"><rect
         style="display:none;fill:#334da0;fill-opacity:0.649462;stroke:none;stroke-width:0.659609;stroke-dasharray:none;stroke-opacity:1"
         id="rect48"
         width="58.778763"
         height="16.014832"
         x="54.839981"
         y="131.88431"
         d="m 54.839981,131.88431 h 58.778759 v 16.01483 H 54.839981 Z" /><path
         id="lpe_path-effect46"
         style="fill:#334da0;fill-opacity:0.649462;stroke:none;stroke-width:0.659609;stroke-dasharray:none;stroke-opacity:1"
         class="powerclip"
         d="m 56.450196,121.60685 h 55.037954 v 16.93641 H 56.450196 Z m -1.610215,10.27746 v 16.01483 h 58.778759 v -16.01483 z" /></clipPath><clipPath
       clipPathUnits="userSpaceOnUse"
       id="clipath_lpe_path-effect48"><rect
         style="display:none;fill:#334da0;fill-opacity:0.649462;stroke:none;stroke-width:0.529167;stroke-dasharray:none;stroke-opacity:1"
         id="rect49"
         width="28.437147"
         height="11.340233"
         x="72.413002"
         y="132.31714"
         d="m 72.413002,132.31714 h 28.437148 v 11.34023 H 72.413002 Z" /><path
         id="lpe_path-effect48"
         style="fill:#334da0;fill-opacity:0.649462;stroke:none;stroke-width:0.529167;stroke-dasharray:none;stroke-opacity:1"
         class="powerclip"
         d="m 70.735269,124.18368 h 32.959361 v 13.83139 H 70.735269 Z m 1.677733,8.13346 v 11.34023 h 28.437148 v -11.34023 z" /></clipPath></defs><g
     id="layer1"
     transform="translate(-63.916378,-137.93519)"><g
       id="g62"><g
         id="g61"><g
           id="g54"
           transform="matrix(0.99906033,0,0,1.0732747,2.1936439,-11.462069)"><path
             style="fill:#2a2a2a;fill-opacity:1;stroke:#080808;stroke-width:0.388353;stroke-dasharray:none;stroke-opacity:1"
             d="m 88.08375,150.23616 c -0.697304,0.0561 -16.434645,1.77119 -16.434645,1.77119 l -2.922161,1.39885 15.864945,2.41888 10.527388,-3.45075 z"
             id="path38" /><path
             style="fill:#2a2a2a;fill-opacity:1;stroke:#080808;stroke-width:0.388353;stroke-dasharray:none;stroke-opacity:1"
             d="m 88.08375,162.61587 c -0.697304,-0.0561 -16.434645,-1.77119 -16.434645,-1.77119 l -2.922161,-1.39885 15.864945,-2.41888 10.527388,3.45075 z"
             id="path42" /></g><g
           id="g26"
           transform="translate(-14.287503,0.582545)"><g
             id="g25"><g
               id="g12"
               clip-path="url(#clipPath20)"><path
                 style="fill:#444fa6;fill-opacity:1;stroke:#2a3575;stroke-width:0.529167;stroke-dasharray:none;stroke-opacity:1"
                 d="m 132.4037,155.34387 0.0433,-1.51492 3.54923,-7.5313 2.20745,-0.17313 0.21642,8.13726 -3.02984,1.38507 z"
                 id="path6" /><path
                 style="fill:#2a2a2a;fill-opacity:1;stroke:#080808;stroke-width:0.529167;stroke-dasharray:none;stroke-opacity:1"
                 d="m 134.4813,154.7379 0.90895,-1.0388 5.02087,0.12985 2.20745,1.60149 -8.22383,-0.12986 z"
                 id="path9" /><path
                 style="fill:#3a3c56;fill-opacity:1;stroke:#22263d;stroke-width:0.529167;stroke-dasharray:none;stroke-opacity:1"
                 d="m 123.0545,152.57373 9.78204,1.68805 8.22383,0.73582 3.33282,0.0433 0.47611,1.2985 -23.15658,-0.0866 z"
                 id="path8" /><path
                 style="fill:#444fa6;fill-opacity:1;stroke:#2a3575;stroke-width:0.529167;stroke-dasharray:none;stroke-opacity:1"
                 d="m 142.48872,155.517 c 0,0 0.0433,-3.50595 1.5582,-3.59252 0,0 1.8179,0.86567 1.51492,3.63581 l -1.64477,0.73581 z"
                 id="path11" /></g><g
               id="g23"
               clip-path="url(#clipPath20)"
               transform="matrix(1,0,0,-1,0,311.68694)"><path
                 style="fill:#444fa6;fill-opacity:1;stroke:#2a3575;stroke-width:0.529167;stroke-dasharray:none;stroke-opacity:1"
                 d="m 132.4037,155.34387 0.0433,-1.51492 3.54923,-7.5313 2.20745,-0.17313 0.21642,8.13726 -3.02984,1.38507 z"
                 id="path20" /><path
                 style="fill:#2a2a2a;fill-opacity:1;stroke:#080808;stroke-width:0.529167;stroke-dasharray:none;stroke-opacity:1"
                 d="m 134.4813,154.7379 0.90895,-1.0388 5.02087,0.12985 2.20745,1.60149 -8.22383,-0.12986 z"
                 id="path21" /><path
                 style="fill:#3a3c56;fill-opacity:1;stroke:#22263d;stroke-width:0.529167;stroke-dasharray:none;stroke-opacity:1"
                 d="m 123.0545,152.57373 9.78204,1.68805 8.22383,0.73582 3.33282,0.0433 0.47611,1.2985 -23.15658,-0.0866 z"
                 id="path22" /><path
                 style="fill:#444fa6;fill-opacity:1;stroke:#2a3575;stroke-width:0.529167;stroke-dasharray:none;stroke-opacity:1"
                 d="m 142.48872,155.517 c 0,0 0.0433,-3.50595 1.5582,-3.59252 0,0 1.8179,0.86567 1.51492,3.63581 l -1.64477,0.73581 z"
                 id="path23" /></g></g><g
             id="g24"
             transform="translate(0,-0.36136492)"><path
               style="fill:#8196de;fill-opacity:1;stroke:#1f2757;stroke-width:0.529167;stroke-dasharray:none;stroke-opacity:1"
               d="m 142.31558,155.34387 -0.0433,1.47163 3.6358,-0.0866 -0.0433,-1.51491 z"
               id="path10"
               clip-path="url(#clipPath23)" /><path
               style="fill:#8196de;fill-opacity:1;stroke:#1f2757;stroke-width:0.529167;stroke-dasharray:none;stroke-opacity:1"
               d="m 142.31558,155.34387 -0.0433,1.47163 3.6358,-0.0866 -0.0433,-1.51491 z"
               id="path24"
               clip-path="url(#clipPath23)"
               transform="matrix(1,0,0,-1,0,312.40967)" /></g></g><g
           id="g60"><path
             style="fill:#2a2a2a;fill-opacity:1;stroke:#080808;stroke-width:0.529167;stroke-dasharray:none;stroke-opacity:1"
             d="m 107.68892,149.32748 0.90895,0.2597 2.03432,3.41939 -2.16417,2.94326 -7.5313,-3.3761 z"
             id="path7" /><path
             style="fill:#2a2a2a;fill-opacity:1;stroke:#080808;stroke-width:0.529167;stroke-dasharray:none;stroke-opacity:1"
             d="m 107.68892,163.52455 0.90895,-0.2597 2.03432,-3.41939 -2.16417,-2.94326 -7.5313,3.3761 z"
             id="path32" /><g
             id="g59"><path
               style="fill:#444fa6;fill-opacity:1;stroke:#2a3575;stroke-width:0.529167;stroke-dasharray:none;stroke-opacity:1"
               d="m 91.457673,148.11555 1.774619,-8.48353 6.795478,-0.73582 0.17314,8.87308 0.12985,2.85671 -9.479052,-0.60597 z"
               id="path3" /><path
               style="fill:#aab4f5;fill-opacity:1;stroke:#28357c;stroke-width:0.529167;stroke-dasharray:none;stroke-opacity:1"
               d="m 93.235805,140.00296 6.912855,-0.88409 c 0,0 0.87599,-0.298 0.2224,-0.90545 l -7.298613,0.9383 c 0,0 -0.387155,0.66633 0.163335,0.85121 z"
               id="path5" /><path
               style="fill:#444fa6;fill-opacity:1;stroke:#2a3575;stroke-width:0.529167;stroke-dasharray:none;stroke-opacity:1"
               d="m 91.457673,164.73648 1.774619,8.48353 6.795478,0.73582 0.17314,-8.87308 0.12985,-2.85671 -9.479052,0.60597 z"
               id="path31" /><path
               style="fill:#aab4f5;fill-opacity:1;stroke:#28357c;stroke-width:0.529167;stroke-dasharray:none;stroke-opacity:1"
               d="m 93.235805,172.84907 6.912855,0.88409 c 0,0 0.87599,0.298 0.2224,0.90545 l -7.298613,-0.9383 c 0,0 -0.387155,-0.66633 0.163335,-0.85121 z"
               id="path35" /><g
               id="g56"><path
                 style="fill:#5d6376;fill-opacity:1;stroke:#454957;stroke-width:0.529167;stroke-dasharray:none;stroke-opacity:1"
                 d="m 104.48595,151.49165 4.02535,2.81342 c 0,0 1.68806,-0.12985 4.15521,0.64925 0,0 1.21193,0.95223 1.12536,1.64477 l -28.480428,0.2597 v -4.06864 l 10.128299,-2.68356 z"
                 id="path12"
                 clip-path="url(#clipPath26)"
                 transform="matrix(1,0,0,1.0481978,0,-7.221801)" /><path
                 style="fill:#5d6376;fill-opacity:1;stroke:#454957;stroke-width:0.529167;stroke-dasharray:none;stroke-opacity:1"
                 d="m 104.48595,151.49165 4.02535,2.81342 c 0,0 1.68806,-0.12985 4.15521,0.64925 0,0 1.21193,0.95223 1.12536,1.64477 l -28.480428,0.2597 v -4.06864 l 10.128299,-2.68356 z"
                 id="path33"
                 clip-path="url(#clipPath26)"
                 transform="matrix(1,0,0,-1.0481978,0,320.07383)" /></g></g><g
             id="g57"><path
               style="fill:#3a3c56;fill-opacity:1;stroke:#22263d;stroke-width:0.529167;stroke-dasharray:none;stroke-opacity:1"
               d="m 88.038292,152.79015 c 12.941718,-2.3373 21.252118,0.82239 21.252118,0.82239 0.0433,-1.08209 -1.77462,-4.4149 -1.77462,-4.4149 -2.64028,-1.60149 -7.747716,-2.03432 -7.747716,-2.03432 l -0.173135,1.21193 c -9.089499,-2.03432 -12.682014,0.60597 -12.682014,0.60597 l -13.461116,3.93878 -3.722365,1.5582 -0.605967,1.68805 z"
               id="path4" /><path
               style="fill:#3a3c56;fill-opacity:1;stroke:#22263d;stroke-width:0.529167;stroke-dasharray:none;stroke-opacity:1"
               d="m 88.038292,160.06188 c 12.941718,2.3373 21.252118,-0.82239 21.252118,-0.82239 0.0433,1.08209 -1.77462,4.4149 -1.77462,4.4149 -2.64028,1.60149 -7.747716,2.03432 -7.747716,2.03432 l -0.173135,-1.21193 c -9.089499,2.03432 -12.682014,-0.60597 -12.682014,-0.60597 l -13.461116,-3.93878 -3.722365,-1.5582 -0.605967,-1.68805 z"
               id="path34" /></g></g><g
           id="g55"
           transform="translate(2.1166667)"><path
             style="fill:#334da0;fill-opacity:1;stroke:#273975;stroke-width:0.529167;stroke-dasharray:none;stroke-opacity:1"
             d="m 96.740442,126.87559 -26.14423,1.48005 -8.138369,2.74956 -0.649248,2.16417 43.759445,-1.12537 z"
             id="path39"
             clip-path="url(#clipPath42)"
             transform="matrix(0.73285835,0,0,0.92586701,16.765427,34.333522)" /><path
             style="fill:#334da0;fill-opacity:1;stroke:#273975;stroke-width:0.529167;stroke-dasharray:none;stroke-opacity:1"
             d="m 96.740442,126.87559 -26.14423,1.48005 -8.138369,2.74956 -0.649248,2.16417 43.759445,-1.12537 z"
             id="path43"
             clip-path="url(#clipath_lpe_path-effect46)"
             transform="matrix(0.73285835,0,0,-0.92586701,16.765427,278.51851)" /></g></g><g
         id="g49"
         transform="matrix(0.73389428,0,0,0.73389428,22.226189,56.738795)"><path
           style="fill:#798dc9;fill-opacity:1;stroke:#0e102c;stroke-width:0.529167;stroke-dasharray:none;stroke-opacity:1"
           d="m 89.651753,131.23783 -21.230187,1.74439 2.830324,0.96404 20.360118,-1.04389 -0.499391,-1.14181 z"
           id="path36" /><path
           style="fill:#bcc9f6;fill-opacity:1;stroke:#1b2247;stroke-width:0.529167;stroke-dasharray:none;stroke-opacity:1"
           d="m 76.005525,129.59029 2.380583,1.0388 19.996899,-0.95224 0.04328,3.07312 -22.377482,-0.0433 z"
           id="path37"
           clip-path="url(#clipPath40)"
           transform="translate(-7.4014493,3.7223663)" /><path
           style="fill:#798dc9;fill-opacity:1;stroke:#0e102c;stroke-width:0.529167;stroke-dasharray:none;stroke-opacity:1"
           d="m 89.651753,140.4286 -21.230187,-1.74439 2.830324,-0.96404 20.360118,1.04389 -0.499391,1.14181 z"
           id="path44" /><path
           style="fill:#bcc9f6;fill-opacity:1;stroke:#1b2247;stroke-width:0.529167;stroke-dasharray:none;stroke-opacity:1"
           d="m 76.005525,129.59029 2.380583,1.0388 19.996899,-0.95224 0.04328,3.07312 -22.377482,-0.0433 z"
           id="path45"
           clip-path="url(#clipath_lpe_path-effect48)"
           transform="matrix(1,0,0,-1,-7.4014493,267.94407)" /></g></g><circle
       style="fill:#918eff;fill-opacity:1;stroke:#5d66e9;stroke-width:0.529167;stroke-dasharray:none;stroke-opacity:1"
       id="circle59"
       cx="97.904518"
       cy="156.42601"
       r="6.9747262" /><circle
       style="fill:#cbc9ff;fill-opacity:1;stroke:#6770ea;stroke-width:0.529167;stroke-dasharray:none;stroke-opacity:1"
       id="circle62"
       cx="97.904518"
       cy="156.42601"
       r="4.3254218" /></g></svg>
