<?xml version="1.0" encoding="UTF-8" standalone="no"?>
<!-- Created with Inkscape (http://www.inkscape.org/) -->

<svg
   width="69.968872mm"
   height="72.783012mm"
   viewBox="0 0 69.968872 72.783012"
   version="1.1"
   id="svg1"
   inkscape:export-filename="sfswdfdsfsdf.svg"
   inkscape:export-xdpi="10.348148"
   inkscape:export-ydpi="10.348148"
   sodipodi:docname="automatic-save-0-2024_11_07_09_20_54-41976-1.svg"
   xml:space="preserve"
   xmlns:inkscape="http://www.inkscape.org/namespaces/inkscape"
   xmlns:sodipodi="http://sodipodi.sourceforge.net/DTD/sodipodi-0.dtd"
   xmlns:xlink="http://www.w3.org/1999/xlink"
   xmlns="http://www.w3.org/2000/svg"
   xmlns:svg="http://www.w3.org/2000/svg"><sodipodi:namedview
     id="namedview1"
     pagecolor="#ffffff"
     bordercolor="#000000"
     borderopacity="0.25"
     inkscape:showpageshadow="2"
     inkscape:pageopacity="0.0"
     inkscape:pagecheckerboard="0"
     inkscape:deskcolor="#d1d1d1"
     inkscape:document-units="mm" /><defs
     id="defs1"><linearGradient
       id="linearGradient18"
       inkscape:collect="always"><stop
         style="stop-color:#728397;stop-opacity:1;"
         offset="0"
         id="stop17" /><stop
         style="stop-color:#393d48;stop-opacity:0;"
         offset="1"
         id="stop18" /></linearGradient><linearGradient
       id="linearGradient13"
       inkscape:collect="always"><stop
         style="stop-color:#16151e;stop-opacity:1;"
         offset="0"
         id="stop13" /><stop
         style="stop-color:#2c2a3c;stop-opacity:1;"
         offset="1"
         id="stop14" /></linearGradient><linearGradient
       id="linearGradient11"
       inkscape:collect="always"><stop
         style="stop-color:#000000;stop-opacity:1;"
         offset="0"
         id="stop11" /><stop
         style="stop-color:#0f0f0f;stop-opacity:1;"
         offset="1"
         id="stop12" /></linearGradient><linearGradient
       id="linearGradient9"
       inkscape:collect="always"><stop
         style="stop-color:#000000;stop-opacity:1;"
         offset="0"
         id="stop9" /><stop
         style="stop-color:#181818;stop-opacity:1;"
         offset="1"
         id="stop10" /></linearGradient><linearGradient
       id="linearGradient7"
       inkscape:collect="always"><stop
         style="stop-color:#131313;stop-opacity:1;"
         offset="0"
         id="stop7" /><stop
         style="stop-color:#403746;stop-opacity:1;"
         offset="1"
         id="stop8" /></linearGradient><linearGradient
       id="linearGradient5"
       inkscape:collect="always"><stop
         style="stop-color:#121316;stop-opacity:1;"
         offset="0"
         id="stop5" /><stop
         style="stop-color:#3d4049;stop-opacity:1;"
         offset="1"
         id="stop6" /></linearGradient><linearGradient
       id="linearGradient3"
       inkscape:collect="always"><stop
         style="stop-color:#111113;stop-opacity:1;"
         offset="0"
         id="stop3" /><stop
         style="stop-color:#a5a7af;stop-opacity:1;"
         offset="1"
         id="stop4" /></linearGradient><linearGradient
       id="linearGradient1"
       inkscape:collect="always"><stop
         style="stop-color:#121316;stop-opacity:1;"
         offset="0"
         id="stop1" /><stop
         style="stop-color:#3a3e47;stop-opacity:1;"
         offset="1"
         id="stop2" /></linearGradient><linearGradient
       id="linearGradient196"
       inkscape:collect="always"><stop
         style="stop-color:#16171b;stop-opacity:1;"
         offset="0"
         id="stop196" /><stop
         style="stop-color:#7a808e;stop-opacity:1;"
         offset="1"
         id="stop197" /></linearGradient><linearGradient
       id="linearGradient194"
       inkscape:collect="always"><stop
         style="stop-color:#131214;stop-opacity:1;"
         offset="0"
         id="stop194" /><stop
         style="stop-color:#555159;stop-opacity:1;"
         offset="1"
         id="stop195" /></linearGradient><linearGradient
       id="linearGradient192"
       inkscape:collect="always"><stop
         style="stop-color:#000000;stop-opacity:1;"
         offset="0"
         id="stop192" /><stop
         style="stop-color:#1f1f26;stop-opacity:1;"
         offset="1"
         id="stop193" /></linearGradient><linearGradient
       id="linearGradient190"
       inkscape:collect="always"><stop
         style="stop-color:#181215;stop-opacity:1;"
         offset="0"
         id="stop190" /><stop
         style="stop-color:#272932;stop-opacity:1;"
         offset="1"
         id="stop191" /></linearGradient><linearGradient
       id="linearGradient186"
       inkscape:collect="always"><stop
         style="stop-color:#1a1b23;stop-opacity:1;"
         offset="0"
         id="stop186" /><stop
         style="stop-color:#19191d;stop-opacity:1;"
         offset="1"
         id="stop187" /></linearGradient><linearGradient
       id="linearGradient184"
       inkscape:collect="always"><stop
         style="stop-color:#1b1b1f;stop-opacity:1;"
         offset="0"
         id="stop184" /><stop
         style="stop-color:#16161e;stop-opacity:1;"
         offset="1"
         id="stop185" /></linearGradient><linearGradient
       id="linearGradient180"
       inkscape:collect="always"><stop
         style="stop-color:#000000;stop-opacity:1;"
         offset="0"
         id="stop180" /><stop
         style="stop-color:#17181c;stop-opacity:1;"
         offset="1"
         id="stop181" /></linearGradient><linearGradient
       id="linearGradient178"
       inkscape:collect="always"><stop
         style="stop-color:#151215;stop-opacity:1;"
         offset="0"
         id="stop179" /><stop
         style="stop-color:#1f2129;stop-opacity:1;"
         offset="1"
         id="stop178" /></linearGradient><linearGradient
       id="linearGradient173"
       inkscape:collect="always"><stop
         style="stop-color:#252830;stop-opacity:1;"
         offset="0"
         id="stop174" /><stop
         style="stop-color:#23222c;stop-opacity:1;"
         offset="1"
         id="stop175" /></linearGradient><linearGradient
       id="linearGradient170"
       inkscape:collect="always"><stop
         style="stop-color:#4f5e7d;stop-opacity:1;"
         offset="0"
         id="stop169" /><stop
         style="stop-color:#413f4a;stop-opacity:1;"
         offset="1"
         id="stop170" /></linearGradient><linearGradient
       id="linearGradient166"
       inkscape:collect="always"><stop
         style="stop-color:#5e7095;stop-opacity:1;"
         offset="0"
         id="stop167" /><stop
         style="stop-color:#494753;stop-opacity:1;"
         offset="1"
         id="stop166" /></linearGradient><linearGradient
       id="linearGradient165"
       inkscape:collect="always"><stop
         style="stop-color:#171819;stop-opacity:1;"
         offset="0"
         id="stop164" /><stop
         style="stop-color:#9d93a3;stop-opacity:1;"
         offset="1"
         id="stop165" /></linearGradient><linearGradient
       id="linearGradient163"
       inkscape:collect="always"><stop
         style="stop-color:#060606;stop-opacity:1;"
         offset="0"
         id="stop162" /><stop
         style="stop-color:#302b33;stop-opacity:0.73214287;"
         offset="1"
         id="stop163" /></linearGradient><linearGradient
       id="linearGradient159"
       inkscape:collect="always"><stop
         style="stop-color:#3d3f42;stop-opacity:1;"
         offset="0"
         id="stop159" /><stop
         style="stop-color:#9d93a3;stop-opacity:1;"
         offset="1"
         id="stop160" /></linearGradient><linearGradient
       id="linearGradient155"
       inkscape:collect="always"><stop
         style="stop-color:#060606;stop-opacity:1;"
         offset="0"
         id="stop155" /><stop
         style="stop-color:#302b33;stop-opacity:0.91071427;"
         offset="1"
         id="stop156" /></linearGradient><linearGradient
       id="linearGradient151"
       inkscape:collect="always"><stop
         style="stop-color:#ffffff;stop-opacity:1;"
         offset="0.19207317"
         id="stop151" /><stop
         style="stop-color:#5f6f7e;stop-opacity:0;"
         offset="1"
         id="stop150" /></linearGradient><linearGradient
       id="linearGradient147"
       inkscape:collect="always"><stop
         style="stop-color:#252b31;stop-opacity:1;"
         offset="0"
         id="stop147" /><stop
         style="stop-color:#7a8082;stop-opacity:1;"
         offset="1"
         id="stop148" /></linearGradient><linearGradient
       id="linearGradient146"
       inkscape:collect="always"><stop
         style="stop-color:#080808;stop-opacity:1;"
         offset="0"
         id="stop145" /><stop
         style="stop-color:#393d48;stop-opacity:0;"
         offset="1"
         id="stop146" /></linearGradient><linearGradient
       id="linearGradient141"
       inkscape:collect="always"><stop
         style="stop-color:#131214;stop-opacity:0;"
         offset="0"
         id="stop141" /><stop
         style="stop-color:#131214;stop-opacity:0;"
         offset="1"
         id="stop142" /></linearGradient><linearGradient
       id="linearGradient140"
       inkscape:collect="always"><stop
         style="stop-color:#000000;stop-opacity:1;"
         offset="0"
         id="stop139" /><stop
         style="stop-color:#393d48;stop-opacity:0;"
         offset="1"
         id="stop140" /></linearGradient><linearGradient
       id="linearGradient132"
       inkscape:collect="always"><stop
         style="stop-color:#322c1f;stop-opacity:1;"
         offset="0"
         id="stop132" /><stop
         style="stop-color:#393d48;stop-opacity:1;"
         offset="1"
         id="stop133" /></linearGradient><radialGradient
       inkscape:collect="always"
       xlink:href="#linearGradient132"
       id="radialGradient133"
       cx="135.73637"
       cy="192.62242"
       fx="135.73637"
       fy="192.62242"
       r="26.84186"
       gradientTransform="matrix(1.0920881,-0.36656126,0.33392319,0.99485017,-131.23785,42.693685)"
       gradientUnits="userSpaceOnUse" /><linearGradient
       inkscape:collect="always"
       xlink:href="#linearGradient18"
       id="linearGradient139"
       x1="121.9119"
       y1="166.17842"
       x2="134.69789"
       y2="178.51675"
       gradientUnits="userSpaceOnUse" /><linearGradient
       inkscape:collect="always"
       xlink:href="#linearGradient141"
       id="linearGradient142"
       x1="115.61331"
       y1="172.47701"
       x2="117.52774"
       y2="180.58754"
       gradientUnits="userSpaceOnUse"
       gradientTransform="translate(-54.417058,-8.6740162)" /><linearGradient
       inkscape:collect="always"
       xlink:href="#linearGradient146"
       id="linearGradient145"
       gradientUnits="userSpaceOnUse"
       x1="160.99771"
       y1="206.38589"
       x2="131.85059"
       y2="183.34856"
       gradientTransform="translate(-54.417058,-8.6740162)" /><linearGradient
       inkscape:collect="always"
       xlink:href="#linearGradient147"
       id="linearGradient148"
       x1="140.54234"
       y1="173.42017"
       x2="166.72868"
       y2="149.17488"
       gradientUnits="userSpaceOnUse"
       gradientTransform="translate(-54.417058,-8.6740162)" /><radialGradient
       inkscape:collect="always"
       xlink:href="#linearGradient151"
       id="radialGradient150"
       cx="170.5276"
       cy="160.91724"
       fx="170.5276"
       fy="160.91724"
       r="24.816095"
       gradientTransform="matrix(0.60474914,-0.18821015,0.1912563,0.61453694,-19.164844,87.115436)"
       gradientUnits="userSpaceOnUse" /><linearGradient
       inkscape:collect="always"
       xlink:href="#linearGradient155"
       id="linearGradient156"
       x1="153.27876"
       y1="178.63928"
       x2="179.62401"
       y2="178.63928"
       gradientUnits="userSpaceOnUse"
       gradientTransform="translate(-54.417058,-8.6740162)" /><linearGradient
       inkscape:collect="always"
       xlink:href="#linearGradient163"
       id="linearGradient158"
       x1="153.27876"
       y1="178.63928"
       x2="179.62401"
       y2="178.63928"
       gradientUnits="userSpaceOnUse"
       gradientTransform="translate(-54.417058,-8.6740162)" /><linearGradient
       inkscape:collect="always"
       xlink:href="#linearGradient165"
       id="linearGradient160"
       x1="164.21388"
       y1="164.19173"
       x2="181.78577"
       y2="193.7865"
       gradientUnits="userSpaceOnUse"
       gradientTransform="translate(-54.417058,-8.6740162)" /><linearGradient
       inkscape:collect="always"
       xlink:href="#linearGradient159"
       id="linearGradient162"
       x1="151.87553"
       y1="176.96149"
       x2="181.18179"
       y2="176.96149"
       gradientUnits="userSpaceOnUse"
       gradientTransform="translate(-54.417058,-8.6740162)" /><linearGradient
       inkscape:collect="always"
       xlink:href="#linearGradient166"
       id="linearGradient167"
       x1="143.69882"
       y1="181.16603"
       x2="151.43311"
       y2="187.29207"
       gradientUnits="userSpaceOnUse"
       gradientTransform="translate(-54.417058,-8.6740162)" /><linearGradient
       inkscape:collect="always"
       xlink:href="#linearGradient170"
       id="linearGradient169"
       x1="143.69882"
       y1="181.16603"
       x2="151.43311"
       y2="187.29207"
       gradientUnits="userSpaceOnUse"
       gradientTransform="translate(-54.417058,-8.6740162)" /><linearGradient
       inkscape:collect="always"
       xlink:href="#linearGradient173"
       id="linearGradient175"
       x1="154.95123"
       y1="198.3842"
       x2="164.94722"
       y2="199.16074"
       gradientUnits="userSpaceOnUse"
       gradientTransform="translate(-54.417058,-8.6740162)" /><linearGradient
       inkscape:collect="always"
       xlink:href="#linearGradient178"
       id="linearGradient179"
       x1="150.63715"
       y1="205.24431"
       x2="166.23401"
       y2="200.67136"
       gradientUnits="userSpaceOnUse"
       gradientTransform="translate(-54.417058,-8.6740162)" /><linearGradient
       inkscape:collect="always"
       xlink:href="#linearGradient180"
       id="linearGradient181"
       x1="150.63715"
       y1="205.24431"
       x2="166.23401"
       y2="200.67136"
       gradientUnits="userSpaceOnUse"
       gradientTransform="translate(-54.417058,-8.6740162)" /><linearGradient
       inkscape:collect="always"
       xlink:href="#linearGradient184"
       id="linearGradient185"
       x1="155.85721"
       y1="206.38686"
       x2="159.67654"
       y2="209.14789"
       gradientUnits="userSpaceOnUse"
       gradientTransform="translate(-54.417058,-8.6740162)" /><linearGradient
       inkscape:collect="always"
       xlink:href="#linearGradient186"
       id="linearGradient187"
       x1="152.96677"
       y1="206.62413"
       x2="160.75505"
       y2="209.81657"
       gradientUnits="userSpaceOnUse"
       gradientTransform="translate(-54.417058,-8.6740162)" /><linearGradient
       inkscape:collect="always"
       xlink:href="#linearGradient190"
       id="linearGradient191"
       x1="159.99876"
       y1="199.59216"
       x2="167.2235"
       y2="196.0546"
       gradientUnits="userSpaceOnUse"
       gradientTransform="translate(-54.417058,-8.6740162)" /><linearGradient
       inkscape:collect="always"
       xlink:href="#linearGradient192"
       id="linearGradient193"
       x1="159.99876"
       y1="199.59216"
       x2="167.2235"
       y2="196.0546"
       gradientUnits="userSpaceOnUse"
       gradientTransform="translate(-54.417058,-8.6740162)" /><linearGradient
       inkscape:collect="always"
       xlink:href="#linearGradient194"
       id="linearGradient195"
       x1="140.80769"
       y1="219.67334"
       x2="126.67365"
       y2="161.69174"
       gradientUnits="userSpaceOnUse"
       gradientTransform="translate(-54.417058,-8.6740162)" /><linearGradient
       inkscape:collect="always"
       xlink:href="#linearGradient196"
       id="linearGradient197"
       x1="146.23695"
       y1="174.88695"
       x2="173.97639"
       y2="161.94463"
       gradientUnits="userSpaceOnUse"
       gradientTransform="translate(-54.417058,-8.6740162)" /><linearGradient
       inkscape:collect="always"
       xlink:href="#linearGradient1"
       id="linearGradient2"
       x1="168.20703"
       y1="215.61278"
       x2="175.38487"
       y2="219.75432"
       gradientUnits="userSpaceOnUse"
       gradientTransform="translate(-54.417058,-8.6740162)" /><linearGradient
       inkscape:collect="always"
       xlink:href="#linearGradient3"
       id="linearGradient4"
       x1="177.26666"
       y1="218.75426"
       x2="179.23094"
       y2="216.07951"
       gradientUnits="userSpaceOnUse"
       gradientTransform="translate(-54.417058,-8.6740162)" /><linearGradient
       inkscape:collect="always"
       xlink:href="#linearGradient5"
       id="linearGradient6"
       x1="177.26666"
       y1="218.75426"
       x2="179.23094"
       y2="216.07951"
       gradientUnits="userSpaceOnUse"
       gradientTransform="translate(-54.417058,-8.6740162)" /><linearGradient
       inkscape:collect="always"
       xlink:href="#linearGradient7"
       id="linearGradient8"
       x1="172.95256"
       y1="222.29787"
       x2="178.41118"
       y2="219.36427"
       gradientUnits="userSpaceOnUse"
       gradientTransform="translate(-54.417058,-8.6740162)" /><linearGradient
       inkscape:collect="always"
       xlink:href="#linearGradient9"
       id="linearGradient10"
       x1="172.95256"
       y1="222.29787"
       x2="178.41118"
       y2="219.36427"
       gradientUnits="userSpaceOnUse"
       gradientTransform="translate(-54.417058,-8.6740162)" /><linearGradient
       inkscape:collect="always"
       xlink:href="#linearGradient11"
       id="linearGradient12"
       x1="169.36378"
       y1="219.94711"
       x2="177.42778"
       y2="215.97813"
       gradientUnits="userSpaceOnUse"
       gradientTransform="translate(-54.417058,-8.6740162)" /><linearGradient
       inkscape:collect="always"
       xlink:href="#linearGradient13"
       id="linearGradient14"
       x1="169.36378"
       y1="219.94711"
       x2="177.42778"
       y2="215.97813"
       gradientUnits="userSpaceOnUse"
       gradientTransform="translate(-54.417058,-8.6740162)" /><linearGradient
       inkscape:collect="always"
       xlink:href="#linearGradient141"
       id="linearGradient15"
       gradientUnits="userSpaceOnUse"
       x1="115.61331"
       y1="172.47701"
       x2="117.52774"
       y2="180.58754" /><linearGradient
       inkscape:collect="always"
       xlink:href="#linearGradient140"
       id="linearGradient16"
       gradientUnits="userSpaceOnUse"
       x1="144.83936"
       y1="162.7765"
       x2="131.78307"
       y2="176.56491" /><linearGradient
       inkscape:collect="always"
       xlink:href="#linearGradient141"
       id="linearGradient21"
       gradientUnits="userSpaceOnUse"
       x1="115.61331"
       y1="172.47701"
       x2="117.52774"
       y2="180.58754" /></defs><g
     inkscape:label="Layer 1"
     inkscape:groupmode="layer"
     id="layer1"
     transform="translate(-56.795858,-141.39361)"><path
       style="fill:#685e6d;fill-opacity:0;stroke:#000000;stroke-width:0.529167;stroke-linecap:round;stroke-linejoin:round;stroke-dasharray:none;stroke-opacity:1;paint-order:markers stroke fill"
       d="m 65.860232,205.00368 c 0,0 4.35725,6.21232 6.73001,6.94571 0,0 2.50218,0.77655 7.11828,-2.28647"
       id="path119"
       inkscape:export-filename="..\..\..\..\..\..\Everything\assets\helmetOnlyNoCrease.svg"
       inkscape:export-xdpi="10.348148"
       inkscape:export-ydpi="10.348148" /><path
       style="fill:#221b1b;fill-opacity:1;stroke:#0f0d0c;stroke-width:1.05833;stroke-linecap:round;stroke-linejoin:round;stroke-dasharray:none;stroke-opacity:1;paint-order:markers stroke fill"
       d="m 70.288772,208.67653 1.0982,1.49477 7.62633,0.15252 -4.17923,-5.67399 -5.76551,2.04386 z"
       id="path131" /><path
       style="fill:url(#radialGradient133);fill-opacity:1;stroke:url(#linearGradient195);stroke-width:1.05833;stroke-linecap:round;stroke-linejoin:round;stroke-dasharray:none;stroke-opacity:1;paint-order:markers stroke fill"
       d="m 75.291652,149.34365 -3.59963,2.01335 -0.24404,1.76931 c 0,0 -11.77507,7.74835 -13.60539,20.68262 0,0 -2.92851,14.64256 5.18591,26.90571 0,0 3.43571,5.92841 5.89475,7.82661 0,0 2.02763,0.99225 3.23558,-0.47455 0,0 6.94571,3.62385 12.0795,3.62385 0,0 3.8827,0.81968 15.40136,-4.22782 l 10.310718,-13.71886 -0.12943,-7.80854 -3.58071,-9.62045 -12.036348,-26.27291 z"
       id="path129" /><path
       style="display:inline;fill:url(#linearGradient145);fill-opacity:1;stroke:url(#linearGradient142);stroke-width:1.05833;stroke-linecap:round;stroke-linejoin:round;stroke-dasharray:none;stroke-opacity:1;paint-order:markers stroke fill"
       d="m 75.291652,149.34365 -3.59963,2.01335 -0.24404,1.76931 c 0,0 -11.77507,7.74835 -13.60539,20.68262 0,0 -2.92851,14.64256 5.18591,26.90571 0,0 3.43571,5.92841 5.89475,7.82661 0,0 2.02763,0.99225 3.23558,-0.47455 0,0 6.94571,3.62385 12.0795,3.62385 0,0 3.8827,0.81968 15.40136,-4.22782 l 10.310718,-13.71886 -0.12943,-7.80854 -3.58071,-9.62045 -12.036348,-26.27291 z"
       id="path144" /><path
       style="fill:url(#linearGradient160);fill-opacity:1;stroke:url(#linearGradient162);stroke-width:1.05833;stroke-linecap:round;stroke-linejoin:round;stroke-dasharray:none;stroke-opacity:1;paint-order:markers stroke fill"
       d="m 116.47386,154.52955 c 0,0 9.76171,8.72453 9.76171,21.65879 0,0 -0.30505,2.86751 -1.7083,5.55198 0,0 -1.22021,1.22021 -10.98192,-1.22021 l -1.34224,-0.42708 -4.08771,-3.05053 -2.44043,-0.42708 -7.687348,-7.74836 z"
       id="path110" /><path
       style="fill:url(#linearGradient156);fill-opacity:1;stroke:url(#linearGradient158);stroke-width:1.05833;stroke-linecap:round;stroke-linejoin:round;stroke-dasharray:none;stroke-opacity:1;paint-order:markers stroke fill"
       d="m 107.20024,178.50675 c 0,0 8.29745,0.36606 11.95809,2.74548 l 3.84367,1.46426 0.85415,-0.67112 c 0,0 4.94187,-12.99527 -9.39564,-24.83135 l -15.069638,7.56533 2.684468,11.53102 z"
       id="path111" /><path
       style="fill:url(#linearGradient4);fill-opacity:1;stroke:url(#linearGradient6);stroke-width:1.05833;stroke-linecap:round;stroke-linejoin:round;stroke-dasharray:none;stroke-opacity:1;paint-order:markers stroke fill"
       d="m 122.21394,207.38792 1.76879,-0.17257 c 0,0 1.8982,-0.2157 1.94135,1.72565 0,0 -1.55308,2.15705 -2.2002,2.4159 l -3.49442,1.94135 -0.90597,-3.36501 z"
       id="path114" /><path
       style="fill:url(#linearGradient14);fill-opacity:1;stroke:url(#linearGradient12);stroke-width:1.05833;stroke-linecap:round;stroke-linejoin:round;stroke-dasharray:none;stroke-opacity:1;paint-order:markers stroke fill"
       d="m 120.66087,207.30164 c 0,0 2.71788,-0.60398 1.94134,1.63936 0,0 -3.23557,4.05526 -6.5143,3.58071 0,0 -1.59622,-1.03539 0.34513,-3.1493 z"
       id="path113" /><path
       style="fill:#0c0c0d;fill-opacity:1;stroke:url(#linearGradient2);stroke-width:0.91773;stroke-linecap:round;stroke-linejoin:round;stroke-dasharray:none;stroke-opacity:1;paint-order:markers stroke fill"
       d="m 115.77482,205.03115 5.34959,3.44169 0.0748,0.33669 c 0,0 -2.91796,2.76832 -4.45176,2.61869 l -0.0748,-0.52374 -3.89062,-1.9079 2.16978,-3.66615 z"
       id="path112" /><path
       style="fill:#000000;fill-opacity:0;stroke:#292929;stroke-width:1.5875;stroke-dasharray:none;stroke-opacity:1"
       d="m 110.20925,208.92952 4.14154,-5.95347"
       id="path1" /><path
       style="fill:#141419;fill-opacity:1;stroke:#121316;stroke-width:0.832342;stroke-linecap:round;stroke-linejoin:round;stroke-dasharray:none;stroke-opacity:1;paint-order:markers stroke fill"
       d="m 112.9269,203.39832 1.70339,1.00765 -2.42314,3.67068 -0.57579,0.048 -1.43949,-1.07961 z"
       id="path118" /><g
       id="g20"
       transform="translate(-54.417058,-8.6740162)"
       style="display:inline"><path
         style="display:inline;opacity:1;fill:url(#linearGradient139);fill-opacity:1;stroke:url(#linearGradient21);stroke-width:1.05833;stroke-linecap:round;stroke-linejoin:round;stroke-dasharray:none;stroke-opacity:1;paint-order:markers stroke fill"
         d="m 129.70871,158.01767 -3.59963,2.01335 -0.24404,1.76931 c 0,0 -11.77507,7.74835 -13.60539,20.68262 0,0 -2.92851,14.64256 5.18591,26.90571 0,0 3.43571,5.92841 5.89475,7.82661 0,0 2.02763,0.99225 3.23558,-0.47455 0,0 6.94571,3.62385 12.0795,3.62385 0,0 3.8827,0.81968 15.40136,-4.22782 l 10.31072,-13.71886 -0.12943,-7.80854 -3.58071,-9.62045 -12.03635,-26.27291 z"
         id="path138" /><path
         id="path15"
         style="display:inline;opacity:1;fill:url(#linearGradient16);fill-opacity:1;stroke:url(#linearGradient15);stroke-width:1.05833;stroke-linecap:round;stroke-linejoin:round;stroke-dasharray:none;stroke-opacity:1;paint-order:markers stroke fill"
         d="m 129.70888,158.01774 -3.59978,2.01332 -0.24391,1.7694 c 0,0 -11.77506,7.7482 -13.60538,20.68246 0,0 -2.43106,12.17496 3.29231,23.61923 l 41.47395,-29.04009 -8.40517,-18.34617 z" /></g><path
       style="fill:#191b1d;fill-opacity:1;stroke:#080808;stroke-width:1.05833;stroke-linecap:round;stroke-linejoin:round;stroke-dasharray:none;stroke-opacity:1;paint-order:markers stroke fill"
       d="m 116.29083,156.23785 c 0,0 -10.37182,9.7007 -12.26315,12.93427 0,0 -1.52527,2.07436 0,3.78266 0,0 2.2574,2.62346 2.37942,3.84367 l -11.164958,3.17256 -2.01335,-13.48336 20.987678,-12.99528 z"
       id="path109" /><path
       style="fill:#000300;fill-opacity:1;stroke:#1d191a;stroke-width:1.05833;stroke-linecap:round;stroke-linejoin:round;stroke-dasharray:none;stroke-opacity:1;paint-order:markers stroke fill"
       d="m 97.224992,171.61254 c 0,0 5.002878,5.94854 -2.2574,10.03626 0,0 -6.92471,2.8675 -9.39564,-4.24024 0,0 -1.61678,-4.60631 3.56912,-7.68735 l 4.78934,-6.3146 z"
       id="path120" /><path
       style="display:inline;fill:url(#linearGradient167);fill-opacity:1;stroke:url(#linearGradient169);stroke-width:1.05833;stroke-linecap:round;stroke-linejoin:round;stroke-dasharray:none;paint-order:markers stroke fill"
       d="m 90.117242,167.61634 -1.52526,0.64062 -0.33556,2.92851 c 0,0 -4.02671,3.02003 -1.31173,7.74836 0,0 3.38609,4.81984 8.38897,1.31173 0,0 3.9962,-2.77599 1.09819,-7.83988 l 2.34891,-1.95234 0.12202,-2.53194 z"
       id="path121" /><path
       style="display:inline;fill:#1b1818;fill-opacity:1;stroke:#000000;stroke-width:1.05833;stroke-linecap:round;stroke-linejoin:round;stroke-dasharray:none;stroke-opacity:1;paint-order:markers stroke fill"
       d="m 91.856052,171.73457 c 0,0 4.27075,0.45757 3.90468,4.72832 0,0 -0.54909,3.78267 -4.88085,3.29458 0,0 -4.36226,-1.03718 -2.80649,-5.42995 0,0 0.67111,-2.56244 3.78266,-2.59295 z"
       id="path122" /><path
       style="fill:url(#linearGradient148);fill-opacity:1;stroke:url(#linearGradient197);stroke-width:1.05833;stroke-linecap:round;stroke-linejoin:round;stroke-dasharray:none;stroke-opacity:1;paint-order:markers stroke fill"
       d="m 118.4262,154.65157 -21.658788,16.86946 c 0,0 -3.14205,-4.05721 -8.11442,-1.37274 l 0.94567,-6.34511 c 0,0 -5.21642,-12.47669 -9.97525,-13.33084 0,0 -4.33176,-1.83032 -10.40232,0.97618 l -0.42708,-0.36607 c 0,0 8.93807,-9.21261 23.03153,-9.1516 0,0 15.832268,-0.79315 26.600658,12.72072 z"
       id="path123" /><path
       style="fill:url(#linearGradient179);fill-opacity:1;stroke:url(#linearGradient181);stroke-width:1.05833;stroke-linecap:round;stroke-linejoin:round;stroke-dasharray:none;stroke-opacity:1;paint-order:markers stroke fill"
       d="m 93.427372,209.7492 -0.38826,-1.25109 c 0,0 4.91808,-3.53757 6.12603,-4.74552 0,0 -0.47455,-3.88269 -0.0863,-4.87494 l 3.106168,-4.44353 4.96123,-1.20795 -0.90597,-6.25545 c 0,0 -0.47455,-2.71789 -1.03538,-3.49443 0,0 -2.2002,-3.92583 -1.29423,-4.52981 0,0 0.47455,-1.72564 2.32961,-1.38051 l 4.35725,7.76539 -0.17256,9.96558 -5.73776,8.4988 -3.36501,2.67474 -5.608338,2.37276 z"
       id="path124" /><path
       style="fill:url(#linearGradient191);fill-opacity:1;stroke:url(#linearGradient193);stroke-width:1.05833;stroke-linecap:round;stroke-linejoin:round;stroke-dasharray:none;stroke-opacity:1;paint-order:markers stroke fill"
       d="m 105.59316,177.47968 c 0,0 3.40814,7.16142 3.49442,9.01648 l -1.42365,9.40476 -7.07514,6.94571 -0.2157,1.72564 0.99224,0.94911 c 0,0 -0.51769,1.59622 -8.110518,3.32186 l 0.21571,1.29423 c 0,0 11.475518,-4.18468 11.863788,-6.29859 0,0 3.71013,-5.73777 4.57295,-5.82405 0,0 5.09065,-8.36936 -1.50993,-18.24867 l -1.59622,-3.75327 z"
       id="path125" /><path
       style="fill:url(#linearGradient175);fill-opacity:1;stroke:#18191d;stroke-width:1.05833;stroke-linecap:round;stroke-linejoin:round;stroke-dasharray:none;stroke-opacity:1;paint-order:markers stroke fill"
       d="m 109.7347,186.40988 -8.1968,1.59622 -0.47456,3.53757 8.02424,3.01987 c 0,0 1.50994,-2.02763 0.64712,-8.15366 z"
       id="path126" /><path
       style="fill:url(#linearGradient187);fill-opacity:1;stroke:#0a0b0d;stroke-width:1.05833;stroke-linecap:round;stroke-linejoin:round;stroke-dasharray:none;stroke-opacity:1;paint-order:markers stroke fill"
       d="m 102.35757,194.69297 -3.019868,4.61609 0.60397,0.77654 0.258848,3.40814 2.28648,1.72565 6.68686,-9.57732 -2.32961,-1.6825 -3.62385,1.07853 z"
       id="path127" /><path
       id="path116"
       style="fill:#211f28;fill-opacity:1;stroke:#0f0e11;stroke-width:1.05833;stroke-linecap:round;stroke-linejoin:round;stroke-dasharray:none;stroke-opacity:1;paint-order:markers stroke fill"
       d="m 107.52434,197.90187 -3.78272,5.3387 2.50166,1.34203 0.39636,2.56264 4.51497,3.41633 5.70456,-7.321 -5.27771,-3.81321 -1.64693,0.36587 z m 5.03328,3.87419 3.20343,2.13527 -4.05764,5.52162 -2.9285,-2.28771 z" /><path
       style="fill:url(#linearGradient8);fill-opacity:1;stroke:url(#linearGradient10);stroke-width:1.05833;stroke-linecap:round;stroke-linejoin:round;stroke-dasharray:none;stroke-opacity:1;paint-order:markers stroke fill"
       d="m 121.4374,210.32151 c 0,0 1.42366,0.69026 3.32187,0.64712 0,0 -1.59622,1.63936 -4.14154,2.67475 0,0 -1.33738,0.0431 -2.28648,-0.38827 0,0 -1.59622,0.47455 -2.02763,-0.5177 0,0 4.65922,-1.42366 5.13378,-2.4159 z"
       id="path115" /><path
       style="fill:url(#linearGradient185);fill-opacity:1;stroke:#070707;stroke-width:1.05833;stroke-linecap:round;stroke-linejoin:round;stroke-dasharray:none;stroke-opacity:1;paint-order:markers stroke fill"
       d="m 103.13411,196.80688 -1.76878,2.24333 0.34513,1.55308 1.55308,1.03539 2.67474,-3.66699 -1.20795,-1.25109 z"
       id="path128" /><path
       style="fill:url(#radialGradient150);fill-opacity:1;stroke:none;stroke-width:1.05833;stroke-linecap:round;stroke-linejoin:round;stroke-dasharray:none;stroke-opacity:1;paint-order:markers stroke fill"
       d="m 118.4262,154.65157 -21.658788,16.86946 c 0,0 -3.14205,-4.05721 -8.11442,-1.37274 l 0.94567,-6.34511 c 0,0 -5.21642,-12.47669 -9.97525,-13.33084 0,0 -4.33176,-1.83032 -10.40232,0.97618 l -0.42708,-0.36607 c 0,0 8.93807,-9.21261 23.03153,-9.1516 0,0 15.832268,-0.79315 26.600658,12.72072 z"
       id="path150" /></g></svg>
